<?xml version="1.0" encoding="utf-8"?>
<!-- Generator: Adobe Illustrator 23.0.1, SVG Export Plug-In . SVG Version: 6.00 Build 0)  -->
<svg version="1.1" id="Layer_1" xmlns="http://www.w3.org/2000/svg" xmlns:xlink="http://www.w3.org/1999/xlink" x="0px" y="0px"
	 viewBox="0 0 1200 796.2" style="enable-background:new 0 0 1200 796.2;" xml:space="preserve">
<style type="text/css">
	.st0{fill:#222222;}
</style>
<g>
	<title>Logo-01</title>
	<path class="st0" d="M923.5,306.8c11-5.6,19.3-9.4,27.2-14c47.1-27.6,97.3-47.8,150.8-58.5c22-4.4,44.6-5.5,66.9-8
		c5.9-0.7,11.9-1.2,17.8-2c4.7-0.6,9.4-0.7,12.2,4.1s1.8,9.2-1.8,13.8c-5,6.5-9.6,13.4-13.5,20.6c-6.1,10.8-13.9,19-26.1,23.1
		c-13.4,4.5-26.7,9.6-39.8,15.2c-9.2,4-20.4,7.1-26.3,14.3c-6.8,8.3-10.5,20.3-12.5,31.2c-3.7,20.2-5.8,40.8-7.4,61.3
		c-1.7,21.2-10.9,39.8-18.5,58.9c-8.4,20.8-18.7,40.7-25.1,62.5c-4.9,16.8-9.1,34.8-21.2,49c-2.3,2.9-3.8,6.4-4.2,10.1
		c-2.3,23.7-16.1,43.8-20.8,66.7c-0.4,1.8-2.5,3.3-5,6.4c-6.8-9.4-8.5-18.9-9.1-28.7c-0.5-7.8-0.2-15.6-0.5-23.3
		c-0.4-11.9-2.9-23.9,2.5-35.3c0.2-0.4,0.3-0.9,0.3-1.3c-0.6-17.5,2.8-34.6,5.7-51.7c1.2-7.2-3.2-10.6-10.3-7.5
		c-9.7,4.1-18.8,9.3-27.3,15.5c-11.3,8.6-21.5,18.6-32.1,28.1c-2.7,2.4-5.6,4.9-7.5,8c-8.7,14.1-22.5,22.8-34.9,33
		c-11.2,9.2-23.7,9.9-36.2,3.5c-19.7-10-38.5-21.2-53.5-38c-5-5.6-7.7-11.4-6.8-18.7c1-8.7,1.5-17.6,3.8-25.9
		c5.3-18.5,11.7-36.7,17.7-55c0.4-1.3,1.2-2.5,1.5-3.8c7.3-35.2,24.5-67.1,34.3-101.6c9.5-33.1,18.5-66.1,24-100.1
		c2.3-14.6,2.4-28.2-10.7-38.9c-4.8-3.9-7.8-10.1-11.7-15.3c-6.6-8.8-6.3-10.3,2-18.1c17.3-16.3,38.3-26.9,59.1-37.6
		c20-10.3,40.2-20.1,60.7-29.5c36.2-16.7,72.2-33.7,106-55.1c15.8-10,33.2-17.6,49.9-26.3c22.7-11.9,45.4-23.9,70.1-31.3
		c1.3-0.4,2.6-0.5,1.4-0.3l19.7,12.5c-0.9,4.7-5.5,7.2-10.9,9c-3,1-6.9,2-8.3,4.2c-6.4,10.6-16.6,17-26,24.4c-0.7,0.6-1.9,1.1-2,1.8
		c-2.1,12.3-14.8,17.8-18.5,29c-2.9,8.7-9.5,12.8-18,15.4c-5,1.5-9.5,4.8-14,7.5c-3.1,1.9-5.7,4.8-9,6.1
		c-13.2,5.1-23.6,14-33.9,23.3c-5.4,5-11,9.7-16.9,14.1c-6.7,5-12.8,10.2-16.9,17.7c-2.1,3.8-6.1,7-10,9.1
		c-14.6,8-28.4,16.9-40.2,28.8c-2.5,2.5-6.2,3.9-9.1,6.1c-4,3-8.6,5.8-11.4,9.8c-6.1,8.6-11.3,17.8-20.4,23.9
		c-0.7,0.6-1.3,1.3-1.7,2.1C918.3,268.1,920,285.9,923.5,306.8z M1009.4,360.7c-5.8,0.8-9,0.8-11.9,1.7c-6.5,2-12.3,1-18.8-1.1
		c-9.2-3-18-6-25.2-13.1c-5.8-5.8-12.7-10.5-19.2-15.5c-8-6.1-13.3-4.6-16.4,4.7c-1.3,3.9-2.2,7.9-3.2,11.9c-3,12.4-5.5,25-9.1,37.3
		c-2.6,8.8-7.5,16.9-9.8,25.7c-3.8,14.6-5.8,29.7-15.8,41.9c-0.9,1.1-0.3,3.3-0.5,5c11,4.4,19.5-0.7,27.8-5.5
		c21.4-12.6,43.3-24,67.1-31.4c7-2.1,13.8-5.2,20-9.2c4-2.8,6.9-6.9,8.2-11.6c1.4-6.1-0.5-12.9,0.5-19.1
		C1004.1,375.8,1006.7,369.6,1009.4,360.7L1009.4,360.7z"/>
	<path class="st0" d="M177.3,497.4c-2,3.3-3.8,6-5.2,8.9c-6.8,13.6-13.4,27.2-20.1,40.8c-2.8,5.7-5.6,11.3-8.2,17
		c-1.1,2.4-1.6,5.2-2.7,7.6c-2.1,5-3.2,11-6.7,14.6c-6.4,6.6-8.4,14-8.4,22.5c0,6.2-2,11.2-5.4,16.5c-3.5,5.8-5.8,12.3-6.7,19
		c-1,7-3.3,12.2-9.5,15.7c-5.3,2.9-6.9,7.5-8.1,13.4c-2.4,12.6-6.7,24.3-15.6,34.5c-10.5,12.1-19.6,25.4-28.8,38.5
		c-12.5,18.1-28.9,31.7-47.5,44c-6.9-6.2-4.1-12.6-2-19.1c8.3-25.8,16.9-51.4,24.7-77.3c11-36.9,22-73.9,31.7-111.2
		c12.4-48,24.1-96.2,35-144.6c6-26.4,11.2-53.1,14.3-80c3.8-33.3,3.6-66.9-1.9-100.2c-0.6-3.8-3.6-7.2-5.8-10.6
		c-5.8-8.5-6.4-12.5,1.1-19.2c12-10.7,24.6-20.7,37.7-29.8c16.2-11.2,32.9-21.9,50.1-31.5c37.6-21.2,75.3-42.1,115.5-58.1
		c15.5-6.2,30.1-1.7,43.2,14.9s12.3,33.2-4.2,53.2c-12.8,15.4-26.8,29.8-41.8,43.1c-12.6,11.4-27.5,19.7-39.3,32
		c-15.6,16.3-34,29.2-52,42.5c-5.7,4.2-7.2,8.4-4,15.2c6.6,13.8,7.9,29.6,3.7,44.3c-1.1,3.9-1.8,8.6-0.5,12.2
		c2.4,7.2,3.3,13.5,0.3,21.1c-2.7,6.7,1.9,11.3,9.5,11c4.1-0.2,8.2-0.8,12.2-1.9c23.9-6.4,47.8-13.2,71.8-19.3
		c5.9-1.5,14.2-3.4,18.1-0.6c7.2,5.1,12.9,13,13.7,23c1.1,13.3,0.5,24.8-12.7,33.7c-14,9.3-26.1,21.5-39,32.5
		c-2.8,2.4-6,4.7-7.8,7.7c-7.2,12.3-18.3,18.7-31.5,22.7c-10.1,3.1-20,6.7-29.7,10.9c-10.4,4.5-19.6,3.3-28.5-3.3
		C184.5,502.4,182.7,501.2,177.3,497.4z"/>
	<path class="st0" d="M442.3,628.7c0.6-2.7,1.5-7.6,3-12.4c5.2-16.6,9.9-33.5,16.1-49.8c8.1-21.4,17.5-42.4,26.4-63.5
		c0.9-2.1,2.5-4,3-6.2c6.8-31.4,21.5-60.7,24.9-93c0.3-3.2,0.4-6.4,0.7-9.6c0.7-10,1.1-20,2.3-30c2.1-16.7-0.9-21.6-17-25.8
		c-2.2-0.6-4.5-1-6.8-1.4c-36.8-5.9-62.1-30-86.7-54.9c-6.7-6.8-5.3-14.3,3.4-19.5s18-9.1,27.1-13.4c19.5-9.1,39.2-18,58.7-27.3
		c15.3-7.3,30.5-15,45.5-23c14.2-7.5,27.9-15.8,42.2-23.2c27.7-14.5,55.4-28.7,83.3-42.8c20.2-10.2,38.7-2.3,45.7,19.5
		c0.7,2.1,1.2,4.8,0.5,6.7c-3.8,10.3-6.9,20.9-12.2,30.4c-7.1,12.7-13.1,26.5-25.3,35.7c-3.3,2.5-6.2,5.8-9.9,7.3
		c-14.9,6.1-25.7,17.3-37.1,28.1c-7.9,7.5-16.8,14-25.5,20.7c-4.3,3.4-9.3,6-13.4,9.7c-4.9,4.5-7.3,9.6-5.2,17.1
		c2.9,10.9,7.4,21.4,13.4,30.9c8.6,13.8,15,29.4,13.7,46.8c-1.4,18.3-0.5,36.9-3.7,54.9c-2.4,13.7-8.7,27-15.1,39.6
		c-6.8,13.3-15.8,25.6-23.9,38.3c-6.9,10.8-13.7,21.8-20.9,32.4c-3.8,5.6-8.5,10.6-12.7,16c-2.8,3.6-6.6,7.1-7.6,11.3
		c-2.4,9.6-8.8,15.8-15.3,22.4c-7.7,7.8-14.3,16.8-22.5,24.2c-8.8,7.9-18.4,15.4-28.6,21.3C450.5,653,442.2,646.4,442.3,628.7z"/>
</g>
</svg>
